<?xml version="1.0" standalone="no"?>
<!DOCTYPE svg PUBLIC "-//W3C//DTD SVG 20010904//EN"
 "http://www.w3.org/TR/2001/REC-SVG-20010904/DTD/svg10.dtd">
<svg version="1.0" xmlns="http://www.w3.org/2000/svg"
 width="1024.000000pt" height="1024.000000pt" viewBox="0 0 1024.000000 1024.000000"
 preserveAspectRatio="xMidYMid meet">

<g transform="translate(0.000000,1024.000000) scale(0.100000,-0.100000)"
fill="#000000" stroke="none">
<path d="M4910 9464 c-102 -47 -228 -103 -280 -126 -52 -22 -149 -65 -215 -95
-66 -30 -165 -74 -220 -98 -55 -24 -156 -68 -225 -98 -69 -30 -266 -116 -438
-191 -173 -75 -427 -186 -565 -247 -139 -61 -364 -161 -502 -222 -137 -60
-262 -118 -277 -129 -74 -52 4 -113 305 -238 l127 -53 0 -118 0 -119 -33 -14
c-53 -22 -103 -72 -127 -128 -19 -44 -22 -64 -17 -121 6 -64 4 -71 -33 -140
-65 -121 -85 -209 -84 -372 0 -125 3 -148 28 -220 73 -214 227 -383 393 -431
29 -8 53 -20 53 -25 0 -5 -27 -67 -61 -137 -187 -389 -297 -707 -350 -1010
-30 -168 -32 -408 -6 -530 43 -196 109 -338 233 -501 46 -61 84 -115 84 -120
0 -5 -51 -88 -114 -183 -162 -248 -275 -447 -311 -550 -40 -116 -13 -175 217
-470 169 -218 273 -333 509 -568 343 -342 595 -564 919 -809 171 -130 431
-312 585 -410 55 -35 116 -74 135 -86 92 -61 335 -207 379 -230 87 -43 102
-39 341 105 718 433 1346 920 1855 1441 253 258 372 396 555 640 164 218 184
274 140 391 -46 122 -192 384 -374 666 l-46 73 59 69 c125 145 201 284 248
455 27 95 28 111 28 310 0 216 -6 271 -51 460 -56 243 -136 463 -289 800 -47
103 -85 190 -85 195 0 5 24 16 53 25 238 78 397 287 436 573 30 226 -77 509
-243 646 -110 90 -259 146 -391 146 -219 0 -447 -151 -548 -362 -18 -37 -35
-67 -39 -67 -9 -1 -25 83 -41 216 l-14 112 101 42 c147 61 427 176 696 285
484 197 607 257 625 308 8 24 6 31 -16 50 -14 12 -171 87 -350 166 -457 202
-556 245 -799 353 -118 52 -393 174 -610 270 -217 96 -411 181 -430 189 -19 8
-186 83 -371 167 -186 83 -343 151 -350 150 -8 0 -97 -39 -199 -85z m-10 -208
c0 -2 -7 -7 -16 -10 -8 -3 -12 -2 -9 4 6 10 25 14 25 6z m307 -22 c-3 -3 -12
-4 -19 -1 -8 3 -5 6 6 6 11 1 17 -2 13 -5z m-412 -24 c-3 -5 -12 -10 -18 -10
-7 0 -6 4 3 10 19 12 23 12 15 0z m-79 -35 c-11 -8 -25 -15 -30 -15 -6 1 0 7
14 15 32 19 40 18 16 0z m611 9 c-3 -3 -12 -4 -19 -1 -8 3 -5 6 6 6 11 1 17
-2 13 -5z m128 -12 c-3 -3 -11 0 -18 7 -9 10 -8 11 6 5 10 -3 15 -9 12 -12z
m-845 -106 c0 -2 -7 -7 -16 -10 -8 -3 -12 -2 -9 4 6 10 25 14 25 6z m1121 -14
c-7 -2 -18 1 -23 6 -8 8 -4 9 13 5 13 -4 18 -8 10 -11z m-41 -12 c8 -5 11 -10
5 -10 -5 0 -17 5 -25 10 -8 5 -10 10 -5 10 6 0 17 -5 25 -10z m-1315 -10 c-3
-5 -12 -10 -18 -10 -7 0 -6 4 3 10 19 12 23 12 15 0z m1470 -50 c3 -6 -1 -7
-9 -4 -18 7 -21 14 -7 14 6 0 13 -4 16 -10z m-1630 -20 c-3 -5 -12 -10 -18
-10 -7 0 -6 4 3 10 19 12 23 12 15 0z m65 -30 c-8 -5 -19 -10 -25 -10 -5 0 -3
5 5 10 8 5 20 10 25 10 6 0 3 -5 -5 -10z m-364 -105 c-11 -8 -27 -15 -35 -15
-9 1 -2 7 14 15 39 18 44 18 21 0z m2580 -113 c-5 -4 -148 56 -160 68 -5 5 29
-7 77 -27 47 -20 85 -39 83 -41z m-2771 28 c-3 -5 -12 -10 -18 -10 -7 0 -6 4
3 10 19 12 23 12 15 0z m-75 -30 c-8 -5 -19 -10 -25 -10 -5 0 -3 5 5 10 8 5
20 10 25 10 6 0 3 -5 -5 -10z m2910 -20 c19 -11 32 -19 29 -20 -11 0 -79 30
-79 35 0 9 14 5 50 -15z m90 -40 c19 -11 31 -19 25 -19 -5 0 -26 8 -45 19 -19
11 -30 19 -25 19 6 0 26 -8 45 -19z m-3030 0 c-8 -5 -19 -10 -25 -10 -5 0 -3
5 5 10 8 5 20 10 25 10 6 0 3 -5 -5 -10z m-160 -24 c0 -2 -7 -7 -16 -10 -8 -3
-12 -2 -9 4 6 10 25 14 25 6z m40 -20 c0 -2 -7 -7 -16 -10 -8 -3 -12 -2 -9 4
6 10 25 14 25 6z m-320 -136 c0 -5 -5 -10 -11 -10 -5 0 -7 5 -4 10 3 6 8 10
11 10 2 0 4 -4 4 -10z m-110 -24 c0 -2 -7 -7 -16 -10 -8 -3 -12 -2 -9 4 6 10
25 14 25 6z m-150 -96 c-8 -5 -19 -10 -25 -10 -5 0 -3 5 5 10 8 5 20 10 25 10
6 0 3 -5 -5 -10z m-70 -30 c-8 -5 -19 -10 -25 -10 -5 0 -3 5 5 10 8 5 20 10
25 10 6 0 3 -5 -5 -10z m2005 0 c-16 -4 -48 -7 -70 -7 l-40 0 45 7 c25 4 56 7
70 7 22 1 21 0 -5 -7z m-152 -17 c-7 -2 -19 -2 -25 0 -7 3 -2 5 12 5 14 0 19
-2 13 -5z m-56 -9 c-3 -3 -12 -4 -19 -1 -8 3 -5 6 6 6 11 1 17 -2 13 -5z m-40
-10 c-3 -3 -12 -4 -19 -1 -8 3 -5 6 6 6 11 1 17 -2 13 -5z m100 0 c-3 -3 -12
-4 -19 -1 -8 3 -5 6 6 6 11 1 17 -2 13 -5z m-1977 -18 c0 -2 -7 -7 -16 -10 -8
-3 -12 -2 -9 4 6 10 25 14 25 6z m1890 -6 c-8 -5 -22 -9 -30 -9 -10 0 -8 3 5
9 27 12 43 12 25 0z m-143 -6 c-3 -3 -12 -4 -19 -1 -8 3 -5 6 6 6 11 1 17 -2
13 -5z m-77 -19 c-19 -7 -42 -13 -50 -13 -8 0 1 6 20 13 19 7 42 13 50 13 8 0
-1 -6 -20 -13z m5 -45 c-3 -5 -14 -10 -23 -9 -14 0 -13 2 3 9 27 11 27 11 20
0z m-248 -26 c-3 -3 -12 -4 -19 -1 -8 3 -5 6 6 6 11 1 17 -2 13 -5z m63 -38
c0 -2 -7 -7 -16 -10 -8 -3 -12 -2 -9 4 6 10 25 14 25 6z m-100 -46 c-8 -5 -19
-10 -25 -10 -5 0 -3 5 5 10 8 5 20 10 25 10 6 0 3 -5 -5 -10z m-150 -54 c0 -3
-14 -11 -30 -20 -17 -8 -28 -10 -24 -5 3 6 16 14 28 19 26 11 26 11 26 6z
m-163 -93 c-3 -10 -5 -2 -5 17 0 19 2 27 5 18 2 -10 2 -26 0 -35z m-747 -145
c506 -211 480 -199 480 -228 0 -14 -7 -83 -15 -155 -8 -71 -15 -133 -15 -137
0 -21 -19 -3 -36 34 -22 48 -94 151 -133 188 -121 118 -285 185 -437 179 -60
-3 -74 0 -98 18 -15 12 -36 25 -47 28 -17 6 -19 16 -19 102 0 94 0 95 23 90
12 -3 146 -56 297 -119z m837 60 c-3 -8 -6 -5 -6 6 -1 11 2 17 5 13 3 -3 4
-12 1 -19z m-10 -110 c-3 -8 -6 -5 -6 6 -1 11 2 17 5 13 3 -3 4 -12 1 -19z
m-100 -20 c-3 -8 -6 -5 -6 6 -1 11 2 17 5 13 3 -3 4 -12 1 -19z m90 -75 c-3
-10 -5 -4 -5 12 0 17 2 24 5 18 2 -7 2 -21 0 -30z m-110 -155 c-3 -8 -6 -5 -6
6 -1 11 2 17 5 13 3 -3 4 -12 1 -19z m90 -60 c-3 -7 -5 -2 -5 12 0 14 2 19 5
13 2 -7 2 -19 0 -25z m-84 -90 c8 -5 6 -8 -5 -8 -15 0 -18 8 -16 43 1 40 1 40
5 7 3 -19 10 -38 16 -42z m74 20 c-3 -8 -6 -5 -6 6 -1 11 2 17 5 13 3 -3 4
-12 1 -19z m-20 -14 c-3 -3 -12 -4 -19 -1 -8 3 -5 6 6 6 11 1 17 -2 13 -5z
m888 -93 c121 -23 239 -53 319 -81 l60 -20 65 24 c177 67 344 96 551 96 216 0
361 -25 580 -98 192 -65 383 -170 479 -264 118 -115 348 -482 515 -823 150
-305 226 -546 270 -860 35 -247 7 -492 -82 -720 -54 -139 -129 -246 -297 -423
-205 -217 -603 -456 -970 -582 -60 -21 -118 -41 -129 -45 -14 -6 -11 5 18 56
63 110 117 220 114 230 -2 5 -14 -1 -28 -14 -83 -76 -287 -216 -383 -263 -115
-56 -310 -125 -424 -148 -354 -73 -684 -20 -1001 162 -119 69 -164 100 -309
216 -46 36 -83 63 -83 59 0 -5 38 -73 84 -153 46 -80 80 -146 75 -148 -12 -5
-236 68 -356 116 -109 44 -292 144 -413 226 -372 253 -570 485 -671 786 -56
170 -73 269 -73 450 -1 156 1 174 37 330 77 339 141 525 278 800 148 298 388
668 503 778 142 135 379 243 661 301 135 28 136 28 335 30 136 1 198 -3 275
-18z m-1149 -3912 c27 -11 63 -27 79 -34 315 -141 675 -238 1079 -292 l59 -8
-64 -50 c-93 -72 -231 -204 -455 -435 -116 -120 -132 -134 -145 -120 -8 8 -42
47 -74 85 -33 39 -63 72 -66 75 -17 14 -173 225 -214 290 -61 95 -148 246
-176 308 -52 113 -87 202 -79 202 4 0 29 -9 56 -21z m3144 -14 c0 -18 -141
-274 -225 -408 -124 -199 -385 -517 -424 -517 -4 0 -74 72 -156 161 -171 184
-254 264 -382 371 l-90 75 161 22 c88 12 226 35 306 52 131 26 193 41 385 93
86 24 195 63 310 112 103 44 115 48 115 39z m-3190 -470 c45 -55 107 -131 138
-170 31 -38 58 -72 62 -75 3 -3 32 -36 66 -75 33 -38 126 -135 207 -214 l147
-143 34 28 c190 159 255 211 340 273 54 39 102 71 106 71 9 0 143 -204 166
-253 15 -31 14 -36 -24 -132 -22 -55 -63 -183 -92 -285 -28 -102 -67 -235 -85
-296 -18 -61 -41 -147 -51 -192 -11 -45 -21 -82 -24 -82 -3 0 -76 70 -162 155
-241 239 -438 479 -576 700 -55 89 -266 498 -311 605 -21 47 -121 296 -138
340 -3 8 21 -23 55 -70 34 -47 98 -130 142 -185z m3301 94 c-131 -316 -291
-634 -426 -844 -120 -188 -341 -450 -559 -666 l-140 -138 -27 112 c-45 191
-177 649 -224 779 l-28 77 97 146 97 146 37 -27 c134 -100 219 -171 309 -258
l103 -98 42 35 c162 132 515 529 705 792 38 51 69 92 71 90 2 -1 -24 -67 -57
-146z m-1990 -341 c10 -21 17 -38 15 -38 -6 0 -56 87 -56 97 0 10 15 -12 41
-59z m59 -42 c0 -2 -6 -9 -14 -15 -11 -9 -16 -9 -22 0 -4 7 -3 9 4 5 6 -3 13
-2 17 4 6 10 15 14 15 6z m0 -76 c0 -5 -2 -10 -4 -10 -3 0 -8 5 -11 10 -3 6
-1 10 4 10 6 0 11 -4 11 -10z m273 -27 c-13 -2 -35 -2 -50 0 -16 2 -5 4 22 4
28 0 40 -2 28 -4z m-153 -53 c8 -5 11 -10 5 -10 -5 0 -17 5 -25 10 -8 5 -10
10 -5 10 6 0 17 -5 25 -10z m209 6 c-2 -2 -24 -6 -49 -9 -30 -4 -38 -3 -25 3
19 8 83 14 74 6z m-106 -23 c-7 -2 -21 -2 -30 0 -10 3 -4 5 12 5 17 0 24 -2
18 -5z m-152 -334 c-5 -13 -10 -19 -10 -12 -1 15 10 45 15 40 3 -2 0 -15 -5
-28z m-14 -141 c-3 -8 -6 -5 -6 6 -1 11 2 17 5 13 3 -3 4 -12 1 -19z m-87 -65
c-11 -17 -11 -17 -6 0 3 10 6 24 7 30 0 9 2 9 5 0 3 -7 0 -20 -6 -30z m57 -55
c-3 -8 -6 -5 -6 6 -1 11 2 17 5 13 3 -3 4 -12 1 -19z m-90 -90 c-3 -8 -6 -5
-6 6 -1 11 2 17 5 13 3 -3 4 -12 1 -19z m-10 -50 c-3 -7 -5 -2 -5 12 0 14 2
19 5 13 2 -7 2 -19 0 -25z m60 -50 c-3 -8 -6 -5 -6 6 -1 11 2 17 5 13 3 -3 4
-12 1 -19z m-10 -40 c-3 -8 -6 -5 -6 6 -1 11 2 17 5 13 3 -3 4 -12 1 -19z
m-80 -60 c-3 -7 -5 -2 -5 12 0 14 2 19 5 13 2 -7 2 -19 0 -25z m70 10 c-3 -8
-6 -5 -6 6 -1 11 2 17 5 13 3 -3 4 -12 1 -19z m-20 -90 c-3 -8 -6 -5 -6 6 -1
11 2 17 5 13 3 -3 4 -12 1 -19z m-10 -70 c-3 -8 -6 -5 -6 6 -1 11 2 17 5 13 3
-3 4 -12 1 -19z m-62 2 c3 -5 1 -10 -4 -10 -6 0 -11 5 -11 10 0 6 2 10 4 10 3
0 8 -4 11 -10z m52 -52 c-3 -8 -6 -5 -6 6 -1 11 2 17 5 13 3 -3 4 -12 1 -19z
m-73 -32 c-3 -15 -8 -25 -11 -23 -2 3 -1 17 3 31 3 15 8 25 11 23 2 -3 1 -17
-3 -31z m33 -23 c-3 -10 -5 -2 -5 17 0 19 2 27 5 18 2 -10 2 -26 0 -35z m30
-5 c-3 -8 -6 -5 -6 6 -1 11 2 17 5 13 3 -3 4 -12 1 -19z m-40 -50 c-3 -7 -5
-2 -5 12 0 14 2 19 5 13 2 -7 2 -19 0 -25z"/>
<path d="M4113 6494 c-189 -41 -365 -209 -487 -463 -19 -40 -49 -88 -68 -109
-56 -62 -126 -166 -157 -233 -46 -97 -62 -172 -63 -289 0 -95 3 -112 30 -178
40 -97 75 -146 142 -199 97 -76 232 -113 343 -94 154 27 267 118 382 307 32
55 93 144 136 199 42 55 107 145 144 200 37 55 76 111 86 124 26 33 57 142 65
226 5 51 2 89 -11 140 -50 201 -166 330 -336 370 -76 18 -123 18 -206 -1z
m211 -505 c30 -35 33 -69 9 -110 -46 -77 -158 -41 -158 51 0 85 95 123 149 59z
m-258 -301 l29 -33 -32 29 c-31 28 -38 36 -30 36 2 0 16 -15 33 -32z m-20 -30
c3 -10 9 -18 14 -18 4 0 11 -7 14 -16 9 -23 -9 -9 -45 37 -25 32 -28 38 -11
28 12 -8 25 -22 28 -31z m149 -48 c13 -6 15 -9 5 -9 -8 0 -22 4 -30 9 -18 12
-2 12 25 0z m68 -17 c-7 -2 -21 -2 -30 0 -10 3 -4 5 12 5 17 0 24 -2 18 -5z
m76 3 c-12 -10 -59 -15 -59 -6 0 5 14 10 32 10 17 0 29 -2 27 -4z m-84 -21 c6
-2 -15 -4 -45 -4 -30 0 -61 3 -68 8 -12 7 90 4 113 -4z"/>
<path d="M5879 6496 c-210 -58 -344 -250 -343 -491 1 -154 39 -233 243 -503
114 -150 168 -228 196 -282 32 -62 136 -183 188 -219 161 -111 382 -99 536 29
75 63 116 125 148 228 23 74 25 95 20 175 -10 158 -70 297 -189 439 -37 46
-78 103 -89 128 -42 88 -129 226 -189 297 -53 64 -88 92 -193 157 -39 24 -173
56 -232 55 -27 0 -71 -6 -96 -13z m135 -507 c15 -17 26 -43 26 -59 0 -43 -44
-90 -85 -90 -52 0 -90 38 -90 90 0 84 96 122 149 59z m173 -261 c-3 -8 -6 -5
-6 6 -1 11 2 17 5 13 3 -3 4 -12 1 -19z m-15 -50 c-6 -6 -12 -6 -17 3 -5 8 -4
10 3 5 7 -4 12 0 13 11 0 12 2 13 6 5 3 -8 1 -18 -5 -24z m-42 -42 c0 -2 -8
-10 -17 -17 -16 -13 -17 -12 -4 4 13 16 21 21 21 13z m-45 -36 c-3 -5 -12 -10
-18 -10 -7 0 -6 4 3 10 19 12 23 12 15 0z m-175 -10 c11 -8 7 -9 -15 -4 -37 8
-45 14 -19 14 10 0 26 -5 34 -10z m88 3 c-10 -2 -26 -2 -35 0 -10 3 -2 5 17 5
19 0 27 -2 18 -5z m32 -13 c-8 -5 -19 -10 -25 -10 -5 0 -3 5 5 10 8 5 20 10
25 10 6 0 3 -5 -5 -10z"/>
<path d="M4782 5169 c-151 -19 -254 -81 -283 -168 -18 -52 -5 -139 29 -207 46
-90 91 -123 229 -168 85 -28 180 -84 223 -130 22 -24 25 -37 25 -96 0 -78 -17
-105 -89 -140 -113 -54 -362 -66 -472 -22 -112 45 -174 103 -229 216 -26 53
-34 61 -61 64 -74 7 -87 -116 -23 -224 68 -115 168 -189 319 -235 105 -33 272
-33 383 -1 100 29 207 83 239 121 l26 30 44 -42 c123 -118 304 -160 523 -121
128 23 222 71 311 159 107 106 146 207 105 272 -22 36 -63 52 -85 34 -8 -7
-23 -35 -32 -62 -24 -66 -68 -116 -148 -169 -89 -57 -210 -79 -355 -63 -157
17 -246 69 -270 158 -16 59 -14 72 17 104 35 39 188 125 267 151 126 42 199
110 230 215 30 105 14 177 -53 236 -59 51 -145 78 -292 89 -138 11 -490 11
-578 -1z m-67 -139 c3 -5 2 -10 -4 -10 -5 0 -13 5 -16 10 -3 6 -2 10 4 10 5 0
13 -4 16 -10z m163 3 c-10 -2 -26 -2 -35 0 -10 3 -2 5 17 5 19 0 27 -2 18 -5z
m495 0 c-23 -2 -64 -2 -90 0 -26 2 -7 3 42 3 50 0 71 -1 48 -3z m97 -13 c-20
-13 -33 -13 -25 0 3 6 14 10 23 10 15 0 15 -2 2 -10z m-620 -41 c18 -11 -34
-1 -65 13 -13 5 -9 6 15 2 19 -4 42 -10 50 -15z m537 15 c-3 -3 -12 -4 -19 -1
-8 3 -5 6 6 6 11 1 17 -2 13 -5z m-84 -11 c-7 -2 -21 -2 -30 0 -10 3 -4 5 12
5 17 0 24 -2 18 -5z m-80 -10 c-7 -2 -21 -2 -30 0 -10 3 -4 5 12 5 17 0 24 -2
18 -5z m-216 -10 c-20 -2 -52 -2 -70 0 -17 2 0 4 38 4 39 0 53 -2 32 -4z"/>
<path d="M4705 3843 c-54 -10 -61 -13 -62 -33 -4 -45 154 -129 288 -154 163
-30 288 -20 429 37 84 33 136 70 163 115 l17 30 -49 7 c-30 4 -57 2 -69 -4
-34 -18 -154 -58 -197 -66 -58 -10 -279 -6 -339 7 -28 6 -76 23 -106 37 -30
15 -64 26 -75 24z"/>
</g>
</svg>
